# xmcd
#
# Track frame offsets: 
#        150
#        15275
#        30065
#        43475
#        58167
#        73110
#        87567
#        101925
#        116062
#        128977
#        143037
#        157015
#        170732
#        182267
#        197737
#        211052
#        231967
#        245337
#        258427
#        272022
#
# Disc length: 3810 seconds
#
# Revision: 0
# Processed by: cddbd v1.5.2PL0 Copyright (c) Steve Scherf et al.
# Submitted via: ExactAudioCopy v0.99pb4
#
DISCID=210ee014
DTITLE=Various Artist - Jazzin' The Blues
DYEAR=1996
DGENRE=Blues
TTITLE0=Ma Rainey - Jelly bean Blues
TTITLE1=Bessie Smith - Cold In Hand Blues
TTITLE2=King Oliver - Sugar Foot Stomp
TTITLE3=Duke Ellington - Creole Love Call
TTITLE4=Louis Armstrong - West End Blues
TTITLE5=Count Basie - Good Morning Blues
TTITLE6=Jelly-Roll Morton - I Thought I Heard Buddy Bolden Say
TTITLE7=Jelly-Roll Morton - Winin' Boy Blues
TTITLE8=Louis Armstrong - 2:19 Blues
TTITLE9=Cab Calloway - Geechy Joe
TTITLE10=Louis Jordan - Rusty Dusty Blues
TTITLE11=Duke Ellington - Across The Track Blues (Take 1)
TTITLE12=Lucky Millinder - Trouble In Mind
TTITLE13=Duke Ellington - Blue Serge
TTITLE14=Louis Jordan - What's The Use Of Getting Sober
TTITLE15=Count Basie - Harvard Blues
TTITLE16=Billy Eckstine - Good Jelly Blues
TTITLE17=Hot Lips Page - The Lady In Bed
TTITLE18=Lucky Millinder - Hurry, Hurry!
TTITLE19=Count Basie - Take Me Back Baby
EXTD=
EXTT0=
EXTT1=
EXTT2=
EXTT3=
EXTT4=
EXTT5=
EXTT6=
EXTT7=
EXTT8=
EXTT9=
EXTT10=
EXTT11=
EXTT12=
EXTT13=
EXTT14=
EXTT15=
EXTT16=
EXTT17=
EXTT18=
EXTT19=
PLAYORDER=
